name analog
datacolumns 19
datarows 18
range 0.0 0.0085
endheader
time	ground_force_vx	ground_force_vy	ground_force_vz	ground_force_px	ground_force_py	ground_force_pz	l_ground_force_vx	l_ground_force_vy	l_ground_force_vz	l_ground_force_px	l_ground_force_py	l_ground_force_pz	ground_torque_x	ground_torque_y	ground_torque_z	l_ground_torque_x	l_ground_torque_y	l_ground_torque_z
0.0	-0.0	-0.0	-0.0	2.997097969055176	10.48136043548584	-372.9654541015625	-6.267691612243652	-24.449787139892575	-388.8711853027344	-0.0	-0.0	-0.0	-0.0	-0.0	-0.0	134683.0625	-13196.1689453125	-4947.15771484375
0.0005	-0.0	-0.0	-0.0	3.084827423095703	10.2327880859375	-372.1773681640625	-6.392737865447998	-24.81839370727539	-387.4142761230469	-0.0	-0.0	-0.0	-0.0	-0.0	-0.0	134132.765625	-12758.4697265625	-4692.57958984375
0.001	-0.0	-0.0	-0.0	3.4629721641540527	10.39352035522461	-371.8296508789063	-6.1002044677734375	-24.75082015991211	-387.0654296875	-0.0	-0.0	-0.0	-0.0	-0.0	-0.0	134225.828125	-12876.0390625	-4805.71484375
0.0015	-0.0	-0.0	-0.0	3.176626920700073	10.214160919189451	-375.073486328125	-6.141746520996094	-24.81839370727539	-387.6203918457031	-0.0	-0.0	-0.0	-0.0	-0.0	-0.0	133628.046875	-12840.6142578125	-4755.26806640625
0.002	-0.0	-0.0	-0.0	3.3179099559783936	10.3028564453125	-373.9436340332031	-5.902695655822754	-24.802536010742188	-387.397216796875	-0.0	-0.0	-0.0	-0.0	-0.0	-0.0	133933.515625	-12806.615234375	-4681.4375
0.0025	-0.0	-0.0	-0.0	3.3724207878112797	10.303625106811523	-376.843017578125	-5.979948997497559	-25.119525909423828	-387.6846923828125	-0.0	-0.0	-0.0	-0.0	-0.0	-0.0	133963.09375	-12773.57421875	-4702.92138671875
0.003	-0.0	-0.0	-0.0	3.51492691040039	10.392572402954102	-376.34857177734375	-6.121044158935547	-25.10736656188965	-388.3358459472656	-0.0	-0.0	-0.0	-0.0	-0.0	-0.0	134118.953125	-13050.921875	-4720.5810546875
0.0035	-0.0	-0.0	-0.0	3.3363847732543945	10.071735382080078	-377.1926574707031	-6.13735294342041	-25.03108024597168	-388.3849792480469	-0.0	-0.0	-0.0	-0.0	-0.0	-0.0	134469.375	-12678.8818359375	-4772.130859375
0.004	-0.0	-0.0	-0.0	3.69317078590393	9.76883602142334	-378.3274841308594	-6.196641445159912	-25.31562805175781	-390.2868957519531	-0.0	-0.0	-0.0	-0.0	-0.0	-0.0	134582.171875	-12981.064453125	-4763.6796875
0.0045000000000000005	-0.0	-0.0	-0.0	3.6921753883361816	10.143609046936035	-378.1873474121094	-6.278876304626465	-25.773494720458984	-391.25689697265625	-0.0	-0.0	-0.0	-0.0	-0.0	-0.0	134926.0625	-12963.861328125	-4798.994140625
0.005	-0.0	-0.0	-0.0	3.7100768089294434	9.98260498046875	-377.62213134765625	-6.473206996917725	-25.897520065307617	-392.0316467285156	-0.0	-0.0	-0.0	-0.0	-0.0	-0.0	135263.53125	-13030.876953125	-4948.353515625
0.0055	-0.0	-0.0	-0.0	3.942156791687012	10.33754825592041	-381.78753662109375	-6.5838117599487305	-26.582386016845703	-391.7384643554688	-0.0	-0.0	-0.0	-0.0	-0.0	-0.0	135684.828125	-12957.091796875	-4852.27783203125
0.006	-0.0	-0.0	-0.0	3.889974355697632	10.017861366271973	-379.52874755859375	-6.953282356262207	-26.797208786010746	-393.8349609375	-0.0	-0.0	-0.0	-0.0	-0.0	-0.0	135869.421875	-12920.2685546875	-4899.9736328125
0.006500000000000001	-0.0	-0.0	-0.0	4.603724002838135	10.163171768188477	-381.78753662109375	-6.97059440612793	-27.451068878173828	-394.0511779785156	-0.0	-0.0	-0.0	-0.0	-0.0	-0.0	135786.328125	-12803.5654296875	-4888.81396484375
0.007	-0.0	-0.0	-0.0	4.298424243927002	10.233691215515137	-382.3546142578125	-6.581740379333496	-27.556365966796875	-394.5472412109375	-0.0	-0.0	-0.0	-0.0	-0.0	-0.0	135911.8125	-12852.39453125	-4942.14453125
0.0075	-0.0	-0.0	-0.0	4.441508293151856	10.179865837097168	-382.4822387695313	-6.954044342041016	-27.7696533203125	-393.7068176269531	-0.0	-0.0	-0.0	-0.0	-0.0	-0.0	136199.90625	-12885.2099609375	-5001.7119140625
0.008	-0.0	-0.0	-0.0	4.438315391540527	9.96353244781494	-385.2437133789063	-7.0428996086120605	-27.8741397857666	-394.0517883300781	-0.0	-0.0	-0.0	-0.0	-0.0	-0.0	136048.046875	-12924.119140625	-4888.9189453125
0.0085	-0.0	-0.0	-0.0	4.568957328796387	9.444377899169922	-386.0120239257813	-7.168069362640381	-28.033422470092773	-394.6814575195313	-0.0	-0.0	-0.0	-0.0	-0.0	-0.0	136202.21875	-12977.66015625	-4995.77734375
